Fly_normalized_Motion_pl04
version=1
nRows=12
nColumns=43
inDegrees=yes
endheader
time		pelvis_tilt		pelvis_list		pelvis_rotation		pelvis_tx		pelvis_ty		pelvis_tz		hip_flexion_r		hip_adduction_r		hip_rotation_r		knee_angle_r		ankle_angle_r		subtalar_angle_r		mtp_angle_r		hip_flexion_l		hip_adduction_l		hip_rotation_l		knee_angle_l		ankle_angle_l		subtalar_angle_l		mtp_angle_l		lumbar_extension		lumbar_bending		lumbar_rotation		neck_flexion		neck_lateral_bending		neck_rotation		arm_flex_r		arm_add_r		arm_rot_r		elbow_flex_r		pro_sup_r		wrist_flex_r		wrist_dev_r		hand_finger_flex_r		arm_flex_l		arm_add_l		arm_rot_l		elbow_flex_l		pro_sup_l		wrist_flex_l		wrist_dev_l		hand_finger_flex_l		
0.814167		0.674044		-8.901889		88.790178		0.028740		1.515509		0.906266		41.720861		-0.485518		-2.707786		-31.360469		-18.887431		2.474187		3.616018		39.693295		-7.804181		-9.282238		-30.511983		-20.994876		7.996098		23.435936		-35.489822		0.358393		-1.033876		-0.652621		-4.707861		3.751665		-4.996168		-29.488640		0.549699		67.176620		121.542695		-3.848496		-5.193355		-19.735516		-9.371988		-26.606176		-8.545427		77.823452		124.508559		-8.379716		-6.287969		11.510411		
0.818586		0.433105		-8.597529		88.776015		0.028164		1.502512		0.896458		41.213672		-0.829265		-2.833163		-30.614603		-19.098812		2.677726		3.535367		38.928609		-7.535019		-9.654689		-29.531216		-21.416483		8.354614		23.841950		-35.241154		0.201453		-1.059333		-1.753619		-4.716457		3.722775		-7.479228		-29.361526		-0.793756		67.160980		121.388006		-3.827763		-5.341383		-19.888313		-11.590227		-26.635019		-8.889847		77.935633		124.461082		-8.432589		-6.770621		11.305333		
0.823005		0.268960		-8.309003		88.756036		0.027751		1.489225		0.886634		40.758774		-1.066030		-2.941342		-29.948952		-19.332102		2.856090		3.434427		38.229913		-7.354839		-9.994721		-28.691503		-21.806282		8.494689		24.182146		-34.964152		0.098268		-1.086782		-2.923566		-4.737265		3.717740		-9.931326		-29.309164		-1.959422		67.253476		121.300949		-3.838291		-5.496053		-20.067645		-13.930070		-26.735440		-9.196083		78.160386		124.345970		-8.522272		-7.114840		11.069700		
0.827424		0.152114		-8.097828		88.780117		0.027404		1.475652		0.876817		40.355391		-1.271427		-3.109746		-29.261128		-19.571709		2.988259		3.340790		37.605071		-7.195047		-10.261044		-27.831084		-22.162177		8.574235		24.294067		-34.588649		0.052483		-1.152436		-4.160171		-4.771620		3.795749		-12.336994		-29.237613		-3.005964		67.330153		121.114188		-4.006243		-5.608305		-20.233639		-16.345506		-26.779573		-9.605512		78.433902		124.179314		-8.694977		-7.356563		10.896166		
0.831843		0.024370		-7.888062		88.771155		0.027135		1.461918		0.866990		39.937061		-1.463102		-3.269303		-28.561414		-19.761659		3.186641		3.236466		36.927068		-7.034301		-10.520618		-26.894154		-22.506327		8.625431		24.403946		-34.206704		-0.013938		-1.181844		-5.413610		-4.824510		3.830038		-14.766867		-29.116727		-4.144983		67.466523		120.881637		-4.093000		-5.792240		-20.382755		-18.759241		-26.818789		-9.999548		78.710264		124.006103		-8.882774		-7.653981		10.689568		
0.836263		-0.109802		-7.674334		88.750704		0.026903		1.448051		0.857108		39.485428		-1.650592		-3.442743		-27.832724		-19.894783		3.452567		3.108651		36.203232		-6.860835		-10.772732		-25.904783		-22.834832		8.669374		24.518863		-33.824885		-0.087666		-1.180905		-6.668149		-4.908828		3.816377		-17.211899		-28.928318		-5.383711		67.627573		120.584937		-4.056880		-6.011328		-20.511130		-21.152133		-26.829757		-10.401613		78.978828		123.838142		-9.083960		-8.001326		10.446876		
0.840682		-0.169311		-7.482228		88.742953		0.026716		1.433835		0.847404		39.070656		-1.757274		-3.579091		-27.147049		-20.048169		3.654594		2.999963		35.592980		-6.762229		-10.941878		-25.041100		-23.081735		8.695927		24.574606		-33.440998		-0.102993		-1.179360		-7.795899		-5.001695		3.801904		-19.601109		-28.918012		-6.335995		67.873990		120.357951		-4.076420		-6.201212		-20.618392		-23.645473		-26.934309		-10.775336		79.432931		123.707199		-9.242716		-8.312498		10.290566		
0.845101		-0.239506		-7.221070		88.753002		0.026578		1.419555		0.837379		38.621271		-1.898522		-3.808993		-26.579775		-20.204354		3.914252		2.887419		34.960336		-6.698194		-11.230247		-24.389967		-23.367455		8.830085		24.593838		-33.078847		-0.106336		-1.204389		-9.254996		-5.099428		3.800571		-22.046223		-28.638991		-7.602038		68.168066		119.994406		-4.159111		-6.344482		-20.756248		-26.150889		-26.768469		-11.421304		79.812620		123.540659		-9.495611		-8.645508		10.107167		
0.849520		-0.265529		-6.983802		88.746921		0.026514		1.404991		0.827370		38.177247		-1.973541		-4.028268		-26.020553		-20.297888		4.160635		2.811115		34.441554		-6.707394		-11.589050		-23.909927		-23.556171		9.003311		24.579303		-32.715243		-0.097420		-1.204232		-10.548552		-5.151117		3.772009		-24.456261		-28.477077		-8.652574		68.534769		119.695111		-4.235477		-6.499928		-20.874019		-28.696118		-26.723366		-11.943727		80.269247		123.435755		-9.669255		-9.013132		9.992129		
0.853939		-0.284688		-6.720185		88.719782		0.026394		1.390274		0.817256		37.706584		-2.047193		-4.293045		-25.494156		-20.320598		4.477635		2.760036		33.937031		-6.764436		-12.115986		-23.576513		-23.680361		9.319099		24.546831		-32.357922		-0.097019		-1.134920		-11.911917		-5.169792		3.721605		-26.894447		-28.247233		-9.808510		68.914620		119.368121		-4.285693		-6.650958		-21.011820		-31.203191		-26.616934		-12.480201		80.723217		123.380965		-9.833187		-9.459667		9.881479		
0.858359		-0.308560		-6.444260		88.630322		0.026409		1.375446		0.807036		37.185562		-2.096867		-4.578546		-24.926816		-20.261057		4.941305		2.744022		33.378059		-6.874478		-12.807631		-23.236891		-23.678168		9.866642		24.489452		-32.010856		-0.141490		-0.965159		-13.227052		-5.172892		3.602100		-29.346266		-27.972341		-11.023693		69.314579		119.041129		-4.192031		-6.815264		-21.179811		-33.638892		-26.564851		-12.932823		81.116980		123.474689		-9.935729		-10.026314		9.778246		
0.862778		-0.320043		-6.127086		88.610539		0.026279		1.360424		0.796995		36.733502		-2.175869		-4.882870		-24.562008		-20.436427		5.148746		2.726768		32.920930		-6.951686		-13.331730		-23.139295		-23.847059		10.076664		24.419050		-31.721546		-0.142247		-0.966637		-14.579682		-5.135983		3.592533		-31.712004		-27.778256		-12.028289		69.830950		118.818956		-4.440960		-6.974855		-21.343785		-36.198041		-26.377360		-13.557284		81.628422		123.456967		-10.164605		-10.338987		9.716049		
